<?xml version="1.0" encoding="UTF-8" standalone="no"?>
<!DOCTYPE svg PUBLIC "-//W3C//DTD SVG 1.1//EN"
 "http://www.w3.org/Graphics/SVG/1.1/DTD/svg11.dtd">
<!-- Generated by graphviz version 2.44.0 (0)
 -->
<!-- Pages: 1 -->
<svg width="1556pt" height="238pt"
 viewBox="0.00 0.00 1556.29 238.00" xmlns="http://www.w3.org/2000/svg" xmlns:xlink="http://www.w3.org/1999/xlink">
<g id="graph0" class="graph" transform="scale(1 1) rotate(0) translate(4 234)">
<polygon fill="white" stroke="transparent" points="-4,4 -4,-234 1552.29,-234 1552.29,4 -4,4"/>
<!-- 23261729888240 -->
<g id="node1" class="node">
<title>23261729888240</title>
<polygon fill="none" stroke="black" points="0,-193.5 0,-229.5 204,-229.5 204,-193.5 0,-193.5"/>
<text text-anchor="middle" x="50.5" y="-207.8" font-family="Times-Roman" font-size="14.00">data 0.2355</text>
<polyline fill="none" stroke="black" points="101,-193.5 101,-229.5 "/>
<text text-anchor="middle" x="152.5" y="-207.8" font-family="Times-Roman" font-size="14.00">grad 1.0000</text>
</g>
<!-- 23261729937392* -->
<g id="node15" class="node">
<title>23261729937392*</title>
<ellipse fill="none" stroke="black" cx="267" cy="-183.5" rx="27" ry="18"/>
<text text-anchor="middle" x="267" y="-179.8" font-family="Times-Roman" font-size="14.00">*</text>
</g>
<!-- 23261729888240&#45;&gt;23261729937392* -->
<g id="edge13" class="edge">
<title>23261729888240&#45;&gt;23261729937392*</title>
<path fill="none" stroke="black" d="M204.38,-194.09C213.65,-192.49 222.56,-190.96 230.58,-189.58"/>
<polygon fill="black" stroke="black" points="231.3,-193.01 240.57,-187.87 230.12,-186.11 231.3,-193.01"/>
</g>
<!-- 23261729958016 -->
<g id="node2" class="node">
<title>23261729958016</title>
<polygon fill="none" stroke="black" points="330.5,-55.5 330.5,-91.5 539.5,-91.5 539.5,-55.5 330.5,-55.5"/>
<text text-anchor="middle" x="381" y="-69.8" font-family="Times-Roman" font-size="14.00">data 0.0665</text>
<polyline fill="none" stroke="black" points="431.5,-55.5 431.5,-91.5 "/>
<text text-anchor="middle" x="485.5" y="-69.8" font-family="Times-Roman" font-size="14.00">grad &#45;2.0000</text>
</g>
<!-- 23261730829024* -->
<g id="node4" class="node">
<title>23261730829024*</title>
<ellipse fill="none" stroke="black" cx="603" cy="-73.5" rx="27" ry="18"/>
<text text-anchor="middle" x="603" y="-69.8" font-family="Times-Roman" font-size="14.00">*</text>
</g>
<!-- 23261729958016&#45;&gt;23261730829024* -->
<g id="edge6" class="edge">
<title>23261729958016&#45;&gt;23261730829024*</title>
<path fill="none" stroke="black" d="M539.72,-73.5C548.82,-73.5 557.56,-73.5 565.48,-73.5"/>
<polygon fill="black" stroke="black" points="565.71,-77 575.71,-73.5 565.71,-70 565.71,-77"/>
</g>
<!-- 23261730829024 -->
<g id="node3" class="node">
<title>23261730829024</title>
<polygon fill="none" stroke="black" points="666,-55.5 666,-91.5 876,-91.5 876,-55.5 666,-55.5"/>
<text text-anchor="middle" x="719.5" y="-69.8" font-family="Times-Roman" font-size="14.00">data &#45;0.1331</text>
<polyline fill="none" stroke="black" points="773,-55.5 773,-91.5 "/>
<text text-anchor="middle" x="824.5" y="-69.8" font-family="Times-Roman" font-size="14.00">grad 1.0000</text>
</g>
<!-- 23261730520368+ -->
<g id="node11" class="node">
<title>23261730520368+</title>
<ellipse fill="none" stroke="black" cx="939" cy="-100.5" rx="27" ry="18"/>
<text text-anchor="middle" x="939" y="-96.8" font-family="Times-Roman" font-size="14.00">+</text>
</g>
<!-- 23261730829024&#45;&gt;23261730520368+ -->
<g id="edge10" class="edge">
<title>23261730829024&#45;&gt;23261730520368+</title>
<path fill="none" stroke="black" d="M876.19,-90.45C885.52,-91.96 894.47,-93.42 902.51,-94.73"/>
<polygon fill="black" stroke="black" points="902.1,-98.21 912.53,-96.36 903.23,-91.3 902.1,-98.21"/>
</g>
<!-- 23261730829024*&#45;&gt;23261730829024 -->
<g id="edge1" class="edge">
<title>23261730829024*&#45;&gt;23261730829024</title>
<path fill="none" stroke="black" d="M630.3,-73.5C637.76,-73.5 646.38,-73.5 655.6,-73.5"/>
<polygon fill="black" stroke="black" points="655.83,-77 665.83,-73.5 655.83,-70 655.83,-77"/>
</g>
<!-- 23261730518256 -->
<g id="node5" class="node">
<title>23261730518256</title>
<polygon fill="none" stroke="black" points="1344.29,-82.5 1344.29,-118.5 1548.29,-118.5 1548.29,-82.5 1344.29,-82.5"/>
<text text-anchor="middle" x="1394.79" y="-96.8" font-family="Times-Roman" font-size="14.00">data 0.1024</text>
<polyline fill="none" stroke="black" points="1445.29,-82.5 1445.29,-118.5 "/>
<text text-anchor="middle" x="1496.79" y="-96.8" font-family="Times-Roman" font-size="14.00">grad 1.0000</text>
</g>
<!-- 23261730518256ReLU -->
<g id="node6" class="node">
<title>23261730518256ReLU</title>
<ellipse fill="none" stroke="black" cx="1275.15" cy="-100.5" rx="33.29" ry="18"/>
<text text-anchor="middle" x="1275.15" y="-96.8" font-family="Times-Roman" font-size="14.00">ReLU</text>
</g>
<!-- 23261730518256ReLU&#45;&gt;23261730518256 -->
<g id="edge2" class="edge">
<title>23261730518256ReLU&#45;&gt;23261730518256</title>
<path fill="none" stroke="black" d="M1308.36,-100.5C1316.1,-100.5 1324.81,-100.5 1333.99,-100.5"/>
<polygon fill="black" stroke="black" points="1334.11,-104 1344.11,-100.5 1334.11,-97 1334.11,-104"/>
</g>
<!-- 23261729886464 -->
<g id="node7" class="node">
<title>23261729886464</title>
<polygon fill="none" stroke="black" points="330,-0.5 330,-36.5 540,-36.5 540,-0.5 330,-0.5"/>
<text text-anchor="middle" x="383.5" y="-14.8" font-family="Times-Roman" font-size="14.00">data &#45;2.0000</text>
<polyline fill="none" stroke="black" points="437,-0.5 437,-36.5 "/>
<text text-anchor="middle" x="488.5" y="-14.8" font-family="Times-Roman" font-size="14.00">grad 0.0665</text>
</g>
<!-- 23261729886464&#45;&gt;23261730829024* -->
<g id="edge14" class="edge">
<title>23261729886464&#45;&gt;23261730829024*</title>
<path fill="none" stroke="black" d="M508.59,-36.57C519.21,-39.64 529.94,-42.98 540,-46.5 550.3,-50.11 561.3,-54.66 571.14,-58.99"/>
<polygon fill="black" stroke="black" points="569.95,-62.29 580.51,-63.21 572.82,-55.91 569.95,-62.29"/>
</g>
<!-- 23261731121376 -->
<g id="node8" class="node">
<title>23261731121376</title>
<polygon fill="none" stroke="black" points="669,-110.5 669,-146.5 873,-146.5 873,-110.5 669,-110.5"/>
<text text-anchor="middle" x="719.5" y="-124.8" font-family="Times-Roman" font-size="14.00">data 0.2355</text>
<polyline fill="none" stroke="black" points="770,-110.5 770,-146.5 "/>
<text text-anchor="middle" x="821.5" y="-124.8" font-family="Times-Roman" font-size="14.00">grad 1.0000</text>
</g>
<!-- 23261731121376&#45;&gt;23261730520368+ -->
<g id="edge7" class="edge">
<title>23261731121376&#45;&gt;23261730520368+</title>
<path fill="none" stroke="black" d="M873.34,-111.41C883.73,-109.65 893.71,-107.97 902.59,-106.47"/>
<polygon fill="black" stroke="black" points="903.19,-109.92 912.47,-104.81 902.03,-103.02 903.19,-109.92"/>
</g>
<!-- 23261731121376+ -->
<g id="node9" class="node">
<title>23261731121376+</title>
<ellipse fill="none" stroke="black" cx="603" cy="-128.5" rx="27" ry="18"/>
<text text-anchor="middle" x="603" y="-124.8" font-family="Times-Roman" font-size="14.00">+</text>
</g>
<!-- 23261731121376+&#45;&gt;23261731121376 -->
<g id="edge3" class="edge">
<title>23261731121376+&#45;&gt;23261731121376</title>
<path fill="none" stroke="black" d="M630.3,-128.5C638.55,-128.5 648.22,-128.5 658.57,-128.5"/>
<polygon fill="black" stroke="black" points="658.66,-132 668.66,-128.5 658.66,-125 658.66,-132"/>
</g>
<!-- 23261730520368 -->
<g id="node10" class="node">
<title>23261730520368</title>
<polygon fill="none" stroke="black" points="1002,-82.5 1002,-118.5 1206,-118.5 1206,-82.5 1002,-82.5"/>
<text text-anchor="middle" x="1052.5" y="-96.8" font-family="Times-Roman" font-size="14.00">data 0.1024</text>
<polyline fill="none" stroke="black" points="1103,-82.5 1103,-118.5 "/>
<text text-anchor="middle" x="1154.5" y="-96.8" font-family="Times-Roman" font-size="14.00">grad 1.0000</text>
</g>
<!-- 23261730520368&#45;&gt;23261730518256ReLU -->
<g id="edge8" class="edge">
<title>23261730520368&#45;&gt;23261730518256ReLU</title>
<path fill="none" stroke="black" d="M1206.32,-100.5C1215.23,-100.5 1223.87,-100.5 1231.84,-100.5"/>
<polygon fill="black" stroke="black" points="1231.9,-104 1241.9,-100.5 1231.9,-97 1231.9,-104"/>
</g>
<!-- 23261730520368+&#45;&gt;23261730520368 -->
<g id="edge4" class="edge">
<title>23261730520368+&#45;&gt;23261730520368</title>
<path fill="none" stroke="black" d="M966.19,-100.5C973.66,-100.5 982.3,-100.5 991.54,-100.5"/>
<polygon fill="black" stroke="black" points="991.77,-104 1001.77,-100.5 991.77,-97 991.77,-104"/>
</g>
<!-- 23261729956144 -->
<g id="node12" class="node">
<title>23261729956144</title>
<polygon fill="none" stroke="black" points="0,-138.5 0,-174.5 204,-174.5 204,-138.5 0,-138.5"/>
<text text-anchor="middle" x="50.5" y="-152.8" font-family="Times-Roman" font-size="14.00">data 1.0000</text>
<polyline fill="none" stroke="black" points="101,-138.5 101,-174.5 "/>
<text text-anchor="middle" x="152.5" y="-152.8" font-family="Times-Roman" font-size="14.00">grad 0.2355</text>
</g>
<!-- 23261729956144&#45;&gt;23261729937392* -->
<g id="edge11" class="edge">
<title>23261729956144&#45;&gt;23261729937392*</title>
<path fill="none" stroke="black" d="M204.38,-173.29C213.65,-174.83 222.56,-176.3 230.58,-177.63"/>
<polygon fill="black" stroke="black" points="230.13,-181.11 240.57,-179.29 231.27,-174.2 230.13,-181.11"/>
</g>
<!-- 23261729958880 -->
<g id="node13" class="node">
<title>23261729958880</title>
<polygon fill="none" stroke="black" points="333,-110.5 333,-146.5 537,-146.5 537,-110.5 333,-110.5"/>
<text text-anchor="middle" x="383.5" y="-124.8" font-family="Times-Roman" font-size="14.00">data 0.0000</text>
<polyline fill="none" stroke="black" points="434,-110.5 434,-146.5 "/>
<text text-anchor="middle" x="485.5" y="-124.8" font-family="Times-Roman" font-size="14.00">grad 1.0000</text>
</g>
<!-- 23261729958880&#45;&gt;23261731121376+ -->
<g id="edge12" class="edge">
<title>23261729958880&#45;&gt;23261731121376+</title>
<path fill="none" stroke="black" d="M537.34,-128.5C547.42,-128.5 557.12,-128.5 565.8,-128.5"/>
<polygon fill="black" stroke="black" points="565.85,-132 575.85,-128.5 565.85,-125 565.85,-132"/>
</g>
<!-- 23261729937392 -->
<g id="node14" class="node">
<title>23261729937392</title>
<polygon fill="none" stroke="black" points="333,-165.5 333,-201.5 537,-201.5 537,-165.5 333,-165.5"/>
<text text-anchor="middle" x="383.5" y="-179.8" font-family="Times-Roman" font-size="14.00">data 0.2355</text>
<polyline fill="none" stroke="black" points="434,-165.5 434,-201.5 "/>
<text text-anchor="middle" x="485.5" y="-179.8" font-family="Times-Roman" font-size="14.00">grad 1.0000</text>
</g>
<!-- 23261729937392&#45;&gt;23261731121376+ -->
<g id="edge9" class="edge">
<title>23261729937392&#45;&gt;23261731121376+</title>
<path fill="none" stroke="black" d="M511.72,-165.46C521.32,-162.7 530.94,-159.7 540,-156.5 550.55,-152.78 561.78,-147.98 571.75,-143.41"/>
<polygon fill="black" stroke="black" points="573.28,-146.55 580.85,-139.13 570.31,-140.21 573.28,-146.55"/>
</g>
<!-- 23261729937392*&#45;&gt;23261729937392 -->
<g id="edge5" class="edge">
<title>23261729937392*&#45;&gt;23261729937392</title>
<path fill="none" stroke="black" d="M294.3,-183.5C302.55,-183.5 312.22,-183.5 322.57,-183.5"/>
<polygon fill="black" stroke="black" points="322.66,-187 332.66,-183.5 322.66,-180 322.66,-187"/>
</g>
</g>
</svg>
